<svg id="Layer_1" data-name="Layer 1" xmlns="http://www.w3.org/2000/svg" width="250.1" height="464" viewBox="0 0 250.1 464">
  <defs>
    <style>
      .cls-1 {
        fill: #fff;
      }
    </style>
  </defs>
  <title>arrow-left</title>
  <path class="cls-1" d="M41.4,231l36.9,37.1L242.5,431.9c4,3.9,7,8,6.8,13.9s-3.2,11.5-9.1,14.3-11.7,2.1-16.9-1.9a47.5,47.5,0,0,1-4-3.8L10.4,245.5C.2,235.3.3,227.2,10.6,216.9L219.5,7.9c3.9-3.9,8.1-6.9,13.8-6.8s11.7,3.2,14.4,9.1,2.2,12.1-2,17.4a34.1,34.1,0,0,1-4.2,4.3L46.1,227.4A51.9,51.9,0,0,1,41.4,231Z"/>
</svg>
