<svg id="Layer_1" data-name="Layer 1" xmlns="http://www.w3.org/2000/svg" width="250.1" height="464" viewBox="0 0 250.1 464">
  <defs>
    <style>
      .cls-1 {
        fill: #fff;
      }
    </style>
  </defs>
  <title>arrow-right</title>
  <path class="cls-1" d="M210.9,231.9l-37-37Q91.9,113,9.7,31.1C5.8,27.2,2.8,23,2.9,17.2S6.1,5.7,12,2.8s11.7-2,16.9,2a35.9,35.9,0,0,1,4,3.8L241.8,217.4c10.2,10.3,10.2,18.4-.2,28.7L32.8,455c-3.9,4-8.2,7-13.9,6.8s-11.6-3.1-14.4-9.1a15.7,15.7,0,0,1,2-17.3,58.6,58.6,0,0,1,4.2-4.4L206.2,235.6A51.6,51.6,0,0,1,210.9,231.9Z"/>
</svg>
